<?xml version="1.0" standalone="no"?>
<!DOCTYPE svg PUBLIC "-//W3C//DTD SVG 20010904//EN"
 "http://www.w3.org/TR/2001/REC-SVG-20010904/DTD/svg10.dtd">
<svg version="1.0" xmlns="http://www.w3.org/2000/svg"
 width="300.000000pt" height="170.000000pt" viewBox="0 0 300.000000 170.000000"
 preserveAspectRatio="xMidYMid meet">
<metadata>
Created by potrace 1.10, written by Peter Selinger 2001-2011
</metadata>
<g transform="translate(0.000000,170.000000) scale(0.100000,-0.100000)"
fill="#000000" stroke="none">
<path d="M1427 1610 c-60 -15 -111 -45 -151 -91 -63 -69 -77 -114 -89 -281
-10 -132 -13 -148 -29 -148 -14 0 -18 8 -18 38 0 21 -5 43 -12 50 -21 21 -77
14 -103 -13 l-25 -24 0 -301 c0 -240 3 -307 14 -328 29 -57 290 -287 419 -371
l69 -44 31 18 c126 72 419 323 453 387 11 22 14 88 14 337 0 343 2 333 -65
345 -48 9 -65 -6 -65 -56 0 -35 -2 -39 -22 -36 -18 2 -23 10 -24 38 -6 128
-27 260 -49 307 -27 60 -89 124 -148 152 -50 24 -147 34 -200 21z m178 -59
c56 -25 101 -66 132 -119 22 -38 28 -61 31 -134 l4 -88 -26 0 c-24 0 -26 3
-26 48 0 170 -132 292 -274 252 -100 -28 -156 -110 -156 -228 0 -70 -1 -72
-25 -72 -39 0 -39 1 -36 80 5 125 55 209 156 256 63 30 161 32 220 5z m-19
-96 c27 -16 54 -43 70 -71 24 -41 27 -59 32 -165 5 -116 4 -119 -17 -119 -18
0 -21 6 -21 48 0 26 -5 53 -12 60 -7 7 -33 12 -59 12 -53 0 -59 -8 -59 -71 0
-32 -3 -39 -20 -39 -17 0 -20 7 -20 49 0 54 -8 61 -65 61 -42 0 -65 -29 -65
-82 0 -28 -4 -38 -16 -38 -14 0 -15 17 -12 129 3 125 4 131 33 172 57 81 149
102 231 54z m-124 -312 c3 -45 5 -48 32 -51 38 -5 50 10 48 58 l-3 40 45 0 45
0 3 -52 3 -53 35 0 c35 0 35 0 38 48 l3 48 42 -3 42 -3 5 -50 5 -50 40 0 c40
0 40 0 43 43 3 45 4 45 51 36 l31 -6 0 -70 0 -69 -42 5 c-245 33 -550 33 -845
0 l-53 -5 0 65 c0 56 3 67 21 76 11 6 30 10 42 8 18 -2 23 -10 25 -45 3 -43 4
-43 42 -43 43 0 54 15 44 65 -5 30 -3 33 26 39 56 11 59 9 62 -41 3 -46 4 -48
37 -51 40 -4 51 9 51 59 0 44 5 49 46 49 32 0 33 -1 36 -47z m461 -198 c15 -6
17 -26 17 -209 l0 -202 -62 -60 c-92 -90 -215 -193 -300 -252 l-75 -51 -74 50
c-95 66 -174 131 -278 233 l-85 81 0 202 -1 202 50 6 c28 3 64 7 80 9 51 7
709 -1 728 -9z"/>
<path d="M1470 874 c-85 -30 -110 -94 -76 -192 14 -38 13 -50 -10 -149 -13
-59 -26 -114 -29 -120 -3 -10 30 -13 145 -13 83 0 150 1 150 3 0 1 -11 58 -25
125 -24 116 -24 127 -10 168 8 25 15 54 15 65 0 29 -26 74 -53 92 -27 18 -84
29 -107 21z m102 -64 c20 -25 23 -72 7 -119 -11 -31 -12 -31 -78 -31 l-67 0
-13 49 c-15 60 -6 97 28 116 36 21 101 12 123 -15z m-2 -216 c6 -15 11 -54 13
-88 l2 -61 -79 -3 c-44 -2 -83 1 -89 7 -8 8 15 140 29 163 3 4 30 8 60 8 50 0
55 -2 64 -26z"/>
</g>
</svg>
